<svg xmlns="http://www.w3.org/2000/svg">
    <symbol id="logo" viewBox="0 0 163 35">
        <path d="M-.151.702v33.6h13.532a15.72 15.72 0 0 0 11.72-4.824 16.458 16.458 0 0 0 4.712-11.976 16.458 16.458 0 0 0-4.712-11.976A15.723 15.723 0 0 0 13.381.702H-.151zM7.582 26.91V8.091h5.8a8.646 8.646 0 0 1 6.5 2.568 9.407 9.407 0 0 1 2.489 6.84 9.406 9.406 0 0 1-2.489 6.84 8.642 8.642 0 0 1-6.5 2.568h-5.8zm34.8-5.952h12.082v-7.3H42.378V8.091h13.291V.702H34.645v33.6H55.91V26.91H42.378v-5.952zm36.343 13.344L89.744.702h-8.458l-7.491 24.72L66.304.702h-8.457l11.019 33.6h9.859zm14.4 0h7.733V.702h-7.733v33.6zm38.615-1.416a15.506 15.506 0 0 0 6.041-5.688l-6.67-3.84a7.482 7.482 0 0 1-3.165 3.024 9.87 9.87 0 0 1-4.664 1.1 9.595 9.595 0 0 1-7.177-2.736 9.909 9.909 0 0 1-2.682-7.248 9.909 9.909 0 0 1 2.682-7.248 9.595 9.595 0 0 1 7.177-2.736 9.897 9.897 0 0 1 4.639 1.08 7.592 7.592 0 0 1 3.19 3.048l6.67-3.84a15.873 15.873 0 0 0-6.09-5.688 17.42 17.42 0 0 0-8.409-2.088c-9.779-.272-17.797 7.691-17.591 17.472-.208 9.781 7.809 17.747 17.588 17.476a17.52 17.52 0 0 0 8.458-2.088zm17.881-11.928h12.082v-7.3h-12.085V8.091h13.29V.702h-21.023v33.6h21.265V26.91h-13.532v-5.952z" class="cls-1" data-name="-e-logo"/>
    </symbol>

    <symbol id="logoFooter" viewBox="0 0 163 35">
        <path id="logoFooter" d="M-.151.702v33.6h13.532a15.72 15.72 0 0 0 11.72-4.824 16.458 16.458 0 0 0 4.712-11.976 16.458 16.458 0 0 0-4.712-11.976A15.723 15.723 0 0 0 13.381.702H-.151zM7.582 26.91V8.091h5.8a8.646 8.646 0 0 1 6.5 2.568 9.407 9.407 0 0 1 2.489 6.84 9.406 9.406 0 0 1-2.489 6.84 8.642 8.642 0 0 1-6.5 2.568h-5.8zm34.8-5.952h12.082v-7.3H42.378V8.091h13.291V.702H34.645v33.6H55.91V26.91H42.378v-5.952zm36.343 13.344L89.744.702h-8.458l-7.491 24.72L66.304.702h-8.457l11.019 33.6h9.859zm14.4 0h7.733V.702h-7.733v33.6zm38.615-1.416a15.506 15.506 0 0 0 6.041-5.688l-6.67-3.84a7.482 7.482 0 0 1-3.165 3.024 9.87 9.87 0 0 1-4.664 1.1 9.595 9.595 0 0 1-7.177-2.736 9.909 9.909 0 0 1-2.682-7.248 9.909 9.909 0 0 1 2.682-7.248 9.595 9.595 0 0 1 7.177-2.736 9.897 9.897 0 0 1 4.639 1.08 7.592 7.592 0 0 1 3.19 3.048l6.67-3.84a15.873 15.873 0 0 0-6.09-5.688 17.42 17.42 0 0 0-8.409-2.088c-9.779-.272-17.797 7.691-17.591 17.472-.208 9.781 7.809 17.747 17.588 17.476a17.52 17.52 0 0 0 8.458-2.088zm17.881-11.928h12.082v-7.3h-12.085V8.091h13.29V.702h-21.023v33.6h21.265V26.91h-13.532v-5.952z" class="cls-1" data-name="-e-logo"/>
    </symbol>

    <symbol id="userBlack" viewBox="0 0 13 12">
        <path
                fill="#272525"
                d="M0.032,12h12.937c-0.163-2.643-2.074-4.837-4.671-5.543C9.306,5.846,9.985,4.75,9.985,3.485  C9.985,1.561,8.425,0,6.5,0S3.015,1.561,3.015,3.485c0,1.264,0.68,2.361,1.688,2.972C2.106,7.163,0.194,9.357,0.032,12z"
                id="path2" />
    </symbol>

    <symbol id="cartBlack" viewBox="0 0 12 12" >
        <g>
	        <path d="M11.864,3.017c-0.082-0.098-0.203-0.154-0.327-0.154H9.225V4.09c0,0.563-0.484,1.022-1.08,1.022
		c-0.594,0-1.078-0.458-1.078-1.022V2.863H4.909V4.09c0,0.563-0.485,1.022-1.08,1.022c-0.595,0-1.078-0.458-1.078-1.022V2.863H0.438
		c-0.125,0-0.243,0.056-0.327,0.154C0.028,3.115-0.012,3.245,0.003,3.375l0.776,7.134c0.015,0.806,0.642,1.455,1.411,1.455h7.595
		c0.77,0,1.396-0.649,1.411-1.455l0.776-7.134C11.987,3.245,11.946,3.115,11.864,3.017z"/>
            <path d="M3.829,4.499c0.239,0,0.433-0.184,0.433-0.409V1.84c0-0.632,0.672-1.022,1.295-1.022h1.079
		c0.655,0,1.078,0.401,1.078,1.022v2.25c0,0.225,0.194,0.409,0.431,0.409c0.239,0,0.433-0.184,0.433-0.409V1.84
		C8.577,0.773,7.761,0,6.636,0H5.557C4.367,0,3.398,0.826,3.398,1.84v2.25C3.398,4.315,3.592,4.499,3.829,4.499z"/>
        </g>
    </symbol>

    <symbol id="delivery" viewBox="0 0 136 164">
        <g fill="#fff"><path d="m93.133 38.767c8.121 0 14.945-5.542 16.9-13.049l5.467.814c.107.016.215.024.32.024 1.051 0 1.971-.77 2.131-1.84.176-1.178-.639-2.276-1.816-2.451l-5.541-.825c.002-.046.004-.091.004-.138 0-.182-.006-.362-.014-.542 0 0-.451-6.518-1.074-9.237-.621-2.719-2.535-3.296-2.535-3.296-9.77-2.212-19.772-2.438-22.375-2.438s-3.158 1.332-3.158 1.332l-3.15 4.996-.01-.003c-.076.122-.146.245-.219.368l-.027.043c-1.502 2.58-2.367 5.576-2.367 8.777-.001 9.646 7.819 17.465 17.464 17.465z"/>
            <path d="m131.535 78.076v-.002l-26.742-2.168-9.246-21.112s-.461-2.774-6.008-8.476c-5.549-5.702-16.799-3.39-16.799-3.39s-23.886 4.469-31.745 6.318c-7.86 1.85-8.168 9.863-8.168 9.863l-.632 4.519-15.178-2.941c-.191-.037-.381-.055-.568-.055-1.407 0-2.671 1-2.948 2.429l-7.411 38.242c-.314 1.62.754 3.202 2.375 3.516l51.196 9.923c.115.022.23.024.346.033h.002c-.728.104-1.291-.035-1.291-.035l-9.4-1.849-3.082 17.105-23.56 20.363c-1.701 1.361-2.792 3.453-2.792 5.801 0 4.104 3.326 7.43 7.429 7.43 2.035 0 3.878-.818 5.22-2.145 0 0 27.725-22.05 29.575-23.591 1.85-1.54 2.773-3.853 2.773-3.853s4.541-13.948 5.779-16.874c.848-2.004 4.932-1.079 4.932-1.079l22.885 8.631 7.615 29.062c.082.63.242 1.234.473 1.804h.002c1.098 2.728 3.77 4.654 6.889 4.654 4.104 0 7.43-3.327 7.43-7.43 0-.599-.072-1.179-.207-1.736-.842-4.965-4.604-27.046-5.561-31.826-1.078-5.394-4.621-6.934-4.621-6.934s-21.268-11.558-22.654-12.329c-1.387-.77-1.078-2.774-1.078-2.774l3.93-14.331 2.773 5.856s1.619 3.274 4.084 3.391l33.357.82c4.104 0 7.43-3.326 7.43-7.431-.001-3.889-2.993-7.079-6.804-7.399zm-71.431-15.269-1.789 5.88 9.898 1.919-20.214-3.917.548-2.496zm-2.249 45.473-45.304-8.781 6.27-32.353 12.542 2.431-1.618 11.567-.64 4.406c-.005.026-.008.056-.012.082l-.018.127h.002c-.04.312-.063.629-.063.951 0 4.104 3.327 7.429 7.43 7.429s7.429-3.325 7.429-7.429c0-.318-.021-.63-.061-.937l2.901-13.223 17.413 3.374z"/>
            <path d="m25.05 17.008h38.027c1.1 0 2-.896 2-1.99s-.9-1.99-2-1.99h-38.027c-1.1 0-2 .896-2 1.99s.9 1.99 2 1.99z"/>
            <path d="m38.08 23.025c-1.1 0-2 .896-2 1.99s.9 1.99 2 1.99h22.959c1.1 0 2-.896 2-1.99 0-1.095-.9-1.99-2-1.99z"/></g><path d="m87.098 32.732c8.121 0 14.945-5.542 16.9-13.049l5.467.814c.107.016.215.024.32.024 1.051 0 1.971-.77 2.131-1.84.176-1.178-.639-2.276-1.816-2.451l-5.541-.825c.002-.046.004-.091.004-.138 0-.182-.006-.362-.014-.542 0 0-.451-6.518-1.074-9.237-.621-2.719-2.535-3.296-2.535-3.296-9.77-2.212-19.772-2.438-22.376-2.438s-3.158 1.332-3.158 1.332l-3.15 4.996-.01-.003c-.076.121-.146.245-.219.368l-.027.043c-1.502 2.58-2.367 5.576-2.367 8.777 0 9.646 7.82 17.465 17.465 17.465z" fill="#3a3a3a"/>
        <path d="m125.5 72.041v-.002l-26.742-2.168-9.246-21.112s-.461-2.774-6.008-8.476c-5.549-5.702-16.799-3.39-16.799-3.39s-23.886 4.469-31.745 6.317c-7.86 1.85-8.168 9.863-8.168 9.863l-3.082 22.036-.64 4.406c-.005.026-.008.056-.012.082l-.018.127h.002c-.04.312-.063.629-.063.951 0 4.104 3.327 7.429 7.43 7.429s7.429-3.325 7.429-7.429c0-.318-.021-.63-.061-.937l4.734-21.581 11.557-1.386-1.789 5.88 9.898 1.919c1.62.313 2.688 1.896 2.375 3.517l-7.412 38.243c-.277 1.43-1.541 2.43-2.948 2.43-.072 0-.146-.016-.22-.021-.728.104-1.291-.035-1.291-.035l-9.4-1.849-3.082 17.105-23.56 20.363c-1.701 1.361-2.792 3.453-2.792 5.801 0 4.104 3.326 7.43 7.429 7.43 2.035 0 3.878-.818 5.22-2.145 0 0 27.725-22.05 29.575-23.591 1.85-1.54 2.773-3.853 2.773-3.853s4.541-13.948 5.779-16.874c.848-2.004 4.932-1.079 4.932-1.079l22.885 8.631 7.615 29.062c.082.63.242 1.234.473 1.804h.002c1.098 2.728 3.77 4.654 6.889 4.654 4.104 0 7.43-3.327 7.43-7.43 0-.599-.072-1.179-.207-1.736-.842-4.965-4.604-27.046-5.561-31.826-1.078-5.394-4.621-6.934-4.621-6.934s-21.267-11.555-22.653-12.327c-1.387-.77-1.078-2.774-1.078-2.774l3.93-14.331 2.773 5.856s1.619 3.274 4.084 3.391l33.357.82c4.104 0 7.43-3.326 7.43-7.431 0-3.89-2.992-7.081-6.803-7.4z" fill="#3a3a3a"/>
        <path d="m53.971 108.739h.002c.073.006.147.021.22.021 1.407 0 2.671-1 2.948-2.43l7.412-38.243c.313-1.621-.755-3.203-2.375-3.517l-20.214-3.917-1.286 5.862 17.413 3.374-6.271 32.354-45.304-8.779 6.27-32.353 12.542 2.431.832-5.95-15.178-2.942c-.191-.037-.381-.055-.568-.055-1.407 0-2.671 1-2.948 2.429l-7.411 38.244c-.314 1.62.754 3.202 2.375 3.516l51.196 9.923c.114.022.229.023.345.032z" fill="#f0c42e"/>
        <path d="m59.042 8.982c0 1.095-.9 1.99-2 1.99h-38.027c-1.1 0-2-.896-2-1.99s.9-1.99 2-1.99h38.027c1.1.001 2 .896 2 1.99z" fill="#f0c52e"/>
        <path d="m57.004 18.98c0 1.094-.9 1.99-2 1.99h-22.96c-1.1 0-2-.896-2-1.99 0-1.095.9-1.99 2-1.99h22.959c1.101 0 2.001.896 2.001 1.99z" fill="#f0c52e"/>
    </symbol>

    <symbol id="vr" viewBox="0 0 97 55">
            <path id="vr" d="M84.131,32.639V20.003c0-1.309,1.045-2.37,2.335-2.37l8.326,1.581V11.02c0-2.355-1.708-3.431-4.202-4.265
		l-23.187-6.58c1.616,1.391,1.889,2.04,1.889,4.396v45.209c0,2.356-0.45,4.066-1.967,5.21l23.265-7.065
		c2.401-0.833,4.202-4.216,4.202-6.572V33.44l-8.326,1.567C85.176,35.009,84.131,33.947,84.131,32.639z"/>
            <path id="vr" d="M95.129,20.979l-7.598-1.444c-1.008,0-1.824,0.829-1.824,1.851v9.868c0,1.023,0.816,1.852,1.824,1.852
		l7.598-1.431c1.154-0.419,1.824-0.829,1.824-1.852V22.83C96.953,21.808,96.187,21.323,95.129,20.979z"/>
            <path id="vr" d="M67.17,4.483c0-5.08-4.232-4.459-4.232-4.459S5.832,4.738,2.838,5.145S0.001,9.532,0.001,9.532
		S0,42.069,0,45.812s2.599,3.753,2.599,3.753l16.477,1.403L27.212,39.3c0,0,1.109-1.828,2.505-1.828
		c1.397,0,2.432,1.861,2.432,1.861l9.061,13.521c0,0,18.895,1.909,22.521,1.909c3.626-0.001,3.439-5.024,3.439-5.024
		S67.17,9.563,67.17,4.483z M12.982,37.192c-3.698,0-6.696-4.601-6.696-10.275s2.998-10.275,6.696-10.275
		c3.698,0,6.696,4.601,6.696,10.275S16.68,37.192,12.982,37.192z M49.14,38.618c-4.662,0-8.441-5.239-8.441-11.701
		c0-6.463,3.78-11.702,8.441-11.702c4.662,0,8.442,5.239,8.442,11.702C57.582,33.379,53.802,38.618,49.14,38.618z"/>
    </symbol>
</svg>
